# xmcd
# 
# Track frame offsets:
#     150
#     33335
#     54587
#     69025
#     91067
#     110615
#     132550
#     151250
#     170010
#     208077
#     227380
# 
# Disc length: 3268
# 
# Revision: 1
# Processed by: cddbd v1.5.2PL0 Copyright (c) Steve Scherf et al.
# Submitted via: BonkEnc v1.0.6
# 
DISCID=8a0cc20b
DTITLE=Richard Tee - Real Time
DYEAR=1992
DGENRE=Fusion
TTITLE0=That's the Way of the Workd
TTITLE1=The Way
TTITLE2=Gone Too Soon
TTITLE3=My Funny Valentine
TTITLE4=I Miss You My Love
TTITLE5=Yo, Romeo
TTITLE6=In Real Time
TTITLE7=Send One Your Love
TTITLE8=Take The A Train
TTITLE9=A Secret Love
TTITLE10=Without You
EXTD=
EXTT0=
EXTT1=
EXTT2=
EXTT3=
EXTT4=
EXTT5=
EXTT6=
EXTT7=
EXTT8=
EXTT9=
EXTT10=
PLAYORDER=
